<?xml version="1.0" encoding="UTF-8"?>
<svg width="1200pt" height="1200pt" version="1.1" viewBox="0 0 1200 1200" xmlns="http://www.w3.org/2000/svg">
 <path d="m225 112.5c0-9.9453 3.9492-19.484 10.984-26.516 7.0312-7.0352 16.57-10.984 26.516-10.984h675c13.398 0 25.777 7.1484 32.477 18.75 6.6992 11.602 6.6992 25.898 0 37.5-6.6992 11.602-19.078 18.75-32.477 18.75h-675c-9.9453 0-19.484-3.9492-26.516-10.984-7.0352-7.0312-10.984-16.57-10.984-26.516zm375 450c-29.836 0-58.453 11.852-79.551 32.949-21.098 21.098-32.949 49.715-32.949 79.551s11.852 58.453 32.949 79.551c21.098 21.098 49.715 32.949 79.551 32.949s58.453-11.852 79.551-32.949c21.098-21.098 32.949-49.715 32.949-79.551s-11.852-58.453-32.949-79.551c-21.098-21.098-49.715-32.949-79.551-32.949zm513-210-91.875 675c-3.7383 27.098-17.223 51.91-37.926 69.785-20.707 17.875-47.219 27.598-74.574 27.34h-618c-27.355 0.25781-53.867-9.4648-74.574-27.34-20.703-17.875-34.188-42.688-37.926-69.785l-91.875-675c-4.3438-32.273 5.5117-64.844 27.016-89.293 21.504-24.453 52.547-38.391 85.109-38.207h803.25c32.629-0.29297 63.773 13.598 85.363 38.062 21.586 24.465 31.488 57.102 27.137 89.438zm-325.5 322.5c0-49.727-19.754-97.418-54.918-132.58-35.164-35.164-82.855-54.918-132.58-54.918s-97.418 19.754-132.58 54.918c-35.164 35.164-54.918 82.855-54.918 132.58s19.754 97.418 54.918 132.58c35.164 35.164 82.855 54.918 132.58 54.918 32.914 0 65.246-8.6641 93.75-25.121 28.504-16.457 52.172-40.125 68.629-68.629 16.457-28.504 25.121-60.836 25.121-93.75z" fill="#ee3640"/>
</svg>
