<?xml version="1.0" encoding="UTF-8"?>
<svg width="1200pt" height="1200pt" version="1.1" viewBox="0 0 1200 1200" xmlns="http://www.w3.org/2000/svg">
 <path d="m112.5 1181.2h300c4.9727 0 9.7422-1.9766 13.258-5.4922 3.5156-3.5156 5.4922-8.2852 5.4922-13.258v-225c0-4.9727-1.9766-9.7422-5.4922-13.258-3.5156-3.5156-8.2852-5.4922-13.258-5.4922h-131.25v-94.875c41.109-4.7695 79.035-24.484 106.56-55.391 27.523-30.902 42.734-70.848 42.734-112.23s-15.211-81.332-42.734-112.23c-27.527-30.906-65.453-50.621-106.56-55.391v-76.125h656.25v76.125c-41.109 4.7695-79.035 24.484-106.56 55.391-27.523 30.902-42.734 70.848-42.734 112.23s15.211 81.332 42.734 112.23c27.527 30.906 65.453 50.621 106.56 55.391v94.875h-131.25c-4.9727 0-9.7422 1.9766-13.258 5.4922-3.5156 3.5156-5.4922 8.2852-5.4922 13.258v225c0 4.9727 1.9766 9.7422 5.4922 13.258 3.5156 3.5156 8.2852 5.4922 13.258 5.4922h300c4.9727 0 9.7422-1.9766 13.258-5.4922 3.5156-3.5156 5.4922-8.2852 5.4922-13.258v-225c0-4.9727-1.9766-9.7422-5.4922-13.258-3.5156-3.5156-8.2852-5.4922-13.258-5.4922h-131.25v-94.875c41.109-4.7695 79.035-24.484 106.56-55.391 27.523-30.902 42.734-70.848 42.734-112.23s-15.211-81.332-42.734-112.23c-27.527-30.906-65.453-50.621-106.56-55.391v-94.875c0-4.9727-1.9766-9.7422-5.4922-13.258-3.5156-3.5156-8.2852-5.4922-13.258-5.4922h-337.5v-75h131.25c4.9727 0 9.7422-1.9766 13.258-5.4922 3.5156-3.5156 5.4922-8.2852 5.4922-13.258v-225c0-4.9727-1.9766-9.7422-5.4922-13.258-3.5156-3.5156-8.2852-5.4922-13.258-5.4922h-300c-4.9727 0-9.7422 1.9766-13.258 5.4922-3.5156 3.5156-5.4922 8.2852-5.4922 13.258v225c0 4.9727 1.9766 9.7422 5.4922 13.258 3.5156 3.5156 8.2852 5.4922 13.258 5.4922h131.25v75h-318.75c-4.9727 0-9.7422 1.9766-13.258 5.4922-3.5156 3.5156-5.4922 8.2852-5.4922 13.258v94.875c-41.109 4.7695-79.035 24.484-106.56 55.391-27.523 30.902-42.734 70.848-42.734 112.23s15.211 81.332 42.734 112.23c27.527 30.906 65.453 50.621 106.56 55.391v94.875h-131.25c-4.9727 0-9.7422 1.9766-13.258 5.4922-3.5156 3.5156-5.4922 8.2852-5.4922 13.258v225c0 4.9727 1.9766 9.7422 5.4922 13.258 3.5156 3.5156 8.2852 5.4922 13.258 5.4922zm886.69-594.56 26.625 26.625-43.125 42.938 43.125 42.938-26.625 26.625-42.938-43.125-42.938 43.125-26.625-26.625 43.125-42.938-43.125-42.938 26.625-26.625 42.938 43.125zm-759.94 156.75c-3.5625 4.1641-8.7695 6.5625-14.25 6.5625h-1.125c-5.8711-0.39062-11.215-3.5156-14.438-8.4375l-37.5-56.25 31.125-20.625 23.812 35.625 96.375-112.5 28.5 24.375z" fill="#ee3640"/>
</svg>
