<?xml version="1.0" encoding="UTF-8"?>
<svg width="1200pt" height="1200pt" version="1.1" viewBox="0 0 1200 1200" xmlns="http://www.w3.org/2000/svg">
 <path d="m600 285.12c-173.71 0-314.88 141.16-314.88 314.88s141.16 314.88 314.88 314.88 314.88-141.16 314.88-314.88-141.16-314.88-314.88-314.88zm109.96 173c4.2812-0.085938 8.4141 1.5781 11.441 4.6094 3.0273 3.0273 4.6914 7.1602 4.6094 11.441v62.977c-0.015625 4.1758-1.6914 8.1719-4.6562 11.113-2.9648 2.9414-6.9727 4.5859-11.148 4.5703h-63.008c-4.2344 0.089844-8.3281-1.5273-11.355-4.4883-3.0273-2.9648-4.7344-7.0195-4.7344-11.258 0-4.2344 1.707-8.293 4.7344-11.254 3.0273-2.9648 7.1211-4.582 11.355-4.4883h29.703c-20.309-19.832-47.691-31.488-76.875-31.488-61.055 0-110.3 49.246-110.3 110.3 0.37891 4.3906-1.1016 8.7422-4.0859 11.988-2.9805 3.25-7.1875 5.0977-11.594 5.0977-4.4102 0-8.6172-1.8477-11.598-5.0977-2.9805-3.2461-4.4648-7.5977-4.0859-11.988 0-78.066 63.598-141.82 141.67-141.82 35.434 0 68.871 13.379 94.492 36.379v-20.543c-0.082032-4.1758 1.5-8.2148 4.3945-11.223 2.8945-3.0117 6.8672-4.75 11.043-4.8281zm15.805 125.74v-0.003906c4.2617-0.050781 8.3633 1.6289 11.363 4.6523 3.0039 3.0273 4.6484 7.1406 4.5664 11.402 0 78.066-63.598 141.66-141.66 141.66-35.383 0-68.852-13.324-94.496-36.254v20.449c0.089844 4.2344-1.5273 8.3281-4.4883 11.355-2.9648 3.0312-7.0195 4.7383-11.258 4.7383-4.2344 0-8.293-1.707-11.258-4.7383-2.9609-3.0273-4.5781-7.1211-4.4844-11.355v-62.977c0.007813-4.1797 1.6797-8.1875 4.6445-11.133 2.9648-2.9492 6.9805-4.5977 11.16-4.5781h62.852c5.6133 0.023438 10.793 3.0312 13.59 7.8984 2.8008 4.8672 2.8008 10.852 0 15.719-2.7969 4.8672-7.9766 7.875-13.59 7.8984h-29.582c20.309 19.844 47.711 31.488 76.906 31.488 61.055 0 110.18-49.121 110.18-110.18l0.003907 0.003906c-0.085938-4.1992 1.5117-8.2539 4.4336-11.27 2.9219-3.0117 6.9258-4.7344 11.125-4.7812z" fill="#ee3640"/>
</svg>
